<mxfile host="65bd71144e">
    <diagram id="phFHMVQnaKIKJSG_3cz6" name="Página-1">
        <mxGraphModel dx="979" dy="575" grid="1" gridSize="10" guides="1" tooltips="1" connect="1" arrows="1" fold="1" page="1" pageScale="1" pageWidth="850" pageHeight="1100" math="0" shadow="0">
            <root>
                <mxCell id="0"/>
                <mxCell id="1" parent="0"/>
                <mxCell id="2" value="" style="swimlane;startSize=0;" vertex="1" parent="1">
                    <mxGeometry width="850" height="120" as="geometry"/>
                </mxCell>
                <mxCell id="3" value="" style="ellipse;whiteSpace=wrap;html=1;aspect=fixed;" vertex="1" parent="2">
                    <mxGeometry x="20" y="20" width="30" height="30" as="geometry"/>
                </mxCell>
                <mxCell id="4" value="img" style="text;html=1;strokeColor=none;fillColor=none;align=center;verticalAlign=middle;whiteSpace=wrap;rounded=0;" vertex="1" parent="2">
                    <mxGeometry x="5" y="20" width="60" height="30" as="geometry"/>
                </mxCell>
                <mxCell id="6" value="" style="rounded=0;whiteSpace=wrap;html=1;" vertex="1" parent="2">
                    <mxGeometry x="60" y="20" width="180" height="30" as="geometry"/>
                </mxCell>
                <mxCell id="5" value="&lt;font style=&quot;font-size: 14px&quot;&gt;Buscar&lt;/font&gt;" style="text;html=1;strokeColor=none;fillColor=none;align=center;verticalAlign=middle;whiteSpace=wrap;rounded=0;" vertex="1" parent="2">
                    <mxGeometry x="60" y="20" width="60" height="30" as="geometry"/>
                </mxCell>
                <mxCell id="7" value="" style="ellipse;whiteSpace=wrap;html=1;aspect=fixed;fontSize=14;" vertex="1" parent="2">
                    <mxGeometry x="380" y="25" width="40" height="40" as="geometry"/>
                </mxCell>
                <mxCell id="8" value="Logo" style="text;html=1;strokeColor=none;fillColor=none;align=center;verticalAlign=middle;whiteSpace=wrap;rounded=0;fontSize=14;" vertex="1" parent="2">
                    <mxGeometry x="370" y="30" width="60" height="30" as="geometry"/>
                </mxCell>
                <mxCell id="9" value="&lt;font style=&quot;font-size: 20px&quot;&gt;Sabor Cafetero&lt;/font&gt;" style="text;html=1;strokeColor=none;fillColor=none;align=center;verticalAlign=middle;whiteSpace=wrap;rounded=0;fontSize=14;" vertex="1" parent="2">
                    <mxGeometry x="440" y="45" width="60" as="geometry"/>
                </mxCell>
                <mxCell id="11" value="" style="ellipse;whiteSpace=wrap;html=1;aspect=fixed;fontSize=20;" vertex="1" parent="2">
                    <mxGeometry x="720" y="15" width="40" height="40" as="geometry"/>
                </mxCell>
                <mxCell id="13" value="" style="ellipse;whiteSpace=wrap;html=1;aspect=fixed;fontSize=20;" vertex="1" parent="2">
                    <mxGeometry x="780" y="15" width="40" height="40" as="geometry"/>
                </mxCell>
                <mxCell id="14" value="&lt;font style=&quot;font-size: 14px&quot;&gt;Login&lt;/font&gt;" style="text;html=1;strokeColor=none;fillColor=none;align=center;verticalAlign=middle;whiteSpace=wrap;rounded=0;fontSize=20;" vertex="1" parent="2">
                    <mxGeometry x="710" y="15" width="60" height="30" as="geometry"/>
                </mxCell>
                <mxCell id="15" value="&lt;font style=&quot;font-size: 14px&quot;&gt;Carrito&lt;/font&gt;" style="text;html=1;strokeColor=none;fillColor=none;align=center;verticalAlign=middle;whiteSpace=wrap;rounded=0;fontSize=20;" vertex="1" parent="2">
                    <mxGeometry x="770" y="15" width="60" height="30" as="geometry"/>
                </mxCell>
                <mxCell id="17" value="&lt;b&gt;&lt;font style=&quot;font-size: 16px&quot;&gt;Correo electrónico&lt;/font&gt;&lt;/b&gt;" style="text;html=1;strokeColor=none;fillColor=none;align=left;verticalAlign=middle;whiteSpace=wrap;rounded=0;fontSize=14;" vertex="1" parent="1">
                    <mxGeometry x="245" y="180" width="360" height="30" as="geometry"/>
                </mxCell>
                <mxCell id="18" value="" style="rounded=1;whiteSpace=wrap;html=1;fontSize=16;" vertex="1" parent="1">
                    <mxGeometry x="245" y="220" width="360" height="50" as="geometry"/>
                </mxCell>
                <mxCell id="19" value="&lt;b&gt;&lt;font style=&quot;font-size: 16px&quot;&gt;Contraseña&lt;/font&gt;&lt;/b&gt;" style="text;html=1;strokeColor=none;fillColor=none;align=left;verticalAlign=middle;whiteSpace=wrap;rounded=0;fontSize=14;" vertex="1" parent="1">
                    <mxGeometry x="245" y="300" width="360" height="30" as="geometry"/>
                </mxCell>
                <mxCell id="20" value="" style="rounded=1;whiteSpace=wrap;html=1;fontSize=16;" vertex="1" parent="1">
                    <mxGeometry x="245" y="340" width="360" height="50" as="geometry"/>
                </mxCell>
                <mxCell id="21" value="" style="rounded=1;whiteSpace=wrap;html=1;fontSize=16;" vertex="1" parent="1">
                    <mxGeometry x="330" y="420" width="190" height="60" as="geometry"/>
                </mxCell>
                <mxCell id="22" value="Ingresar" style="text;html=1;strokeColor=none;fillColor=none;align=center;verticalAlign=middle;whiteSpace=wrap;rounded=0;fontSize=16;" vertex="1" parent="1">
                    <mxGeometry x="385" y="435" width="80" height="30" as="geometry"/>
                </mxCell>
                <mxCell id="23" value="&lt;font color=&quot;#ffffff&quot; style=&quot;background-color: rgb(8 , 8 , 8)&quot;&gt;&lt;span style=&quot;font-family: &amp;#34;poppins&amp;#34; , sans-serif&quot;&gt;¿&lt;/span&gt;No tienes una cuenta aún?&lt;/font&gt;" style="text;html=1;strokeColor=none;fillColor=none;align=center;verticalAlign=middle;whiteSpace=wrap;rounded=0;fontSize=16;" vertex="1" parent="1">
                    <mxGeometry x="285" y="535" width="280" height="30" as="geometry"/>
                </mxCell>
                <mxCell id="24" value="" style="rounded=1;whiteSpace=wrap;html=1;fontSize=16;" vertex="1" parent="1">
                    <mxGeometry x="330" y="570" width="190" height="40" as="geometry"/>
                </mxCell>
                <mxCell id="25" value="Crear cuenta" style="text;html=1;strokeColor=none;fillColor=none;align=center;verticalAlign=middle;whiteSpace=wrap;rounded=0;fontSize=16;" vertex="1" parent="1">
                    <mxGeometry x="340" y="575" width="170" height="30" as="geometry"/>
                </mxCell>
                <mxCell id="26" value="&lt;font face=&quot;poppins, sans-serif&quot; color=&quot;#ffffff&quot; style=&quot;background-color: rgb(8 , 8 , 8)&quot;&gt;He olvidado mi contraseña&lt;/font&gt;" style="text;html=1;strokeColor=none;fillColor=none;align=center;verticalAlign=middle;whiteSpace=wrap;rounded=0;fontSize=16;" vertex="1" parent="1">
                    <mxGeometry x="285" y="630" width="280" height="30" as="geometry"/>
                </mxCell>
                <mxCell id="27" value="" style="swimlane;startSize=0;" vertex="1" parent="1">
                    <mxGeometry y="720" width="850" height="390" as="geometry"/>
                </mxCell>
                <mxCell id="28" value="" style="rounded=0;whiteSpace=wrap;html=1;" vertex="1" parent="27">
                    <mxGeometry width="400" height="390" as="geometry"/>
                </mxCell>
                <mxCell id="29" value="&lt;font style=&quot;font-size: 23px&quot;&gt;Imagen decorativa&lt;/font&gt;" style="text;html=1;strokeColor=none;fillColor=none;align=center;verticalAlign=middle;whiteSpace=wrap;rounded=0;strokeWidth=1;" vertex="1" parent="27">
                    <mxGeometry x="35" y="45" width="335" height="245" as="geometry"/>
                </mxCell>
                <mxCell id="30" value="Contactenos" style="text;html=1;strokeColor=none;fillColor=none;align=center;verticalAlign=middle;whiteSpace=wrap;rounded=0;fontSize=23;" vertex="1" parent="27">
                    <mxGeometry x="440" y="35" width="360" height="30" as="geometry"/>
                </mxCell>
                <mxCell id="31" value="" style="rounded=0;whiteSpace=wrap;html=1;fontSize=23;strokeWidth=1;" vertex="1" parent="27">
                    <mxGeometry x="440" y="90" width="380" height="45" as="geometry"/>
                </mxCell>
                <mxCell id="32" value="Nombre" style="text;html=1;strokeColor=none;fillColor=none;align=left;verticalAlign=middle;whiteSpace=wrap;rounded=0;fontSize=23;" vertex="1" parent="27">
                    <mxGeometry x="460" y="97.5" width="240" height="30" as="geometry"/>
                </mxCell>
                <mxCell id="33" value="" style="rounded=0;whiteSpace=wrap;html=1;fontSize=23;strokeWidth=1;" vertex="1" parent="27">
                    <mxGeometry x="440" y="152.5" width="380" height="87.5" as="geometry"/>
                </mxCell>
                <mxCell id="34" value="Mensaje" style="text;html=1;strokeColor=none;fillColor=none;align=left;verticalAlign=middle;whiteSpace=wrap;rounded=0;fontSize=23;" vertex="1" parent="27">
                    <mxGeometry x="460" y="160" width="240" height="30" as="geometry"/>
                </mxCell>
                <mxCell id="35" value="" style="rounded=1;whiteSpace=wrap;html=1;fontSize=23;strokeWidth=1;" vertex="1" parent="27">
                    <mxGeometry x="440" y="265" width="200" height="60" as="geometry"/>
                </mxCell>
                <mxCell id="36" value="Enviar" style="text;html=1;strokeColor=none;fillColor=none;align=center;verticalAlign=middle;whiteSpace=wrap;rounded=0;fontSize=23;" vertex="1" parent="27">
                    <mxGeometry x="510" y="280" width="60" height="30" as="geometry"/>
                </mxCell>
                <mxCell id="37" value="" style="swimlane;startSize=0;fontSize=23;strokeWidth=1;" vertex="1" parent="1">
                    <mxGeometry y="1110" width="850" height="125" as="geometry"/>
                </mxCell>
                <mxCell id="38" value="&lt;span style=&quot;color: rgb(255 , 255 , 255) ; font-family: &amp;#34;poppins&amp;#34; , sans-serif ; background-color: rgb(44 , 44 , 44)&quot;&gt;&lt;font style=&quot;font-size: 24px&quot;&gt;© 2022&amp;nbsp;&lt;/font&gt;&lt;/span&gt;Sabor Cafetero" style="text;html=1;strokeColor=none;fillColor=none;align=center;verticalAlign=middle;whiteSpace=wrap;rounded=0;fontSize=23;" vertex="1" parent="37">
                    <mxGeometry x="280" y="47.5" width="350" height="30" as="geometry"/>
                </mxCell>
            </root>
        </mxGraphModel>
    </diagram>
</mxfile>